IKResults
version=1
nRows=8
nColumns=40
inDegrees=yes

Units are S.I. units (second, meters, Newtons, ...)
Angles are in degrees.

endheader
time	pelvis_tilt	pelvis_list	pelvis_rotation	pelvis_tx	pelvis_ty	pelvis_tz	hip_flexion_r	hip_adduction_r	hip_rotation_r	knee_angle_r	knee_angle_r_beta	ankle_angle_r	subtalar_angle_r	mtp_angle_r	hip_flexion_l	hip_adduction_l	hip_rotation_l	knee_angle_l	knee_angle_l_beta	ankle_angle_l	subtalar_angle_l	mtp_angle_l	lumbar_extension	lumbar_bending	lumbar_rotation	arm_flex_r	arm_add_r	arm_rot_r	elbow_flex_r	pro_sup_r	wrist_flex_r	wrist_dev_r	arm_flex_l	arm_add_l	arm_rot_l	elbow_flex_l	pro_sup_l	wrist_flex_l	wrist_dev_l
      0.00000000	     15.75985755	      2.18583237	      6.64611676	     -1.32325875	      0.95859399	     -1.44282597	    -18.87065860	      3.20032634	    -21.69374888	    -11.37134085	     -0.19846734	     10.01099867	      3.59443212	     -1.59772463	     -1.13711800	      0.35602441	      1.00229403	    -40.24856015	     -0.70246989	     13.09868440	     17.80857388	     12.81267358	    -23.59955047	     -1.08566703	      0.57965287	      0.26974423	    -10.66743815	      2.46878474	     25.48435381	     89.95437384	      0.00000000	      0.00000000	     -1.44187288	      9.68283011	      0.59039078	     18.86430260	     89.95437384	      0.00000000	      0.00000000
      0.01000000	     15.65164333	      2.25432946	      6.65033991	     -1.31752756	      0.95794488	     -1.44276258	    -19.16283220	      3.22194046	    -21.45237335	    -11.31812991	     -0.19753863	     10.14334445	      3.58367658	     -1.68791231	     -0.47593586	      0.07290233	      0.89624422	    -38.52739600	     -0.67242991	     13.09935041	     17.51951993	     11.87437924	    -23.52084243	     -1.20038667	      0.62034373	      0.19723227	    -10.70910292	      2.31350308	     26.04197046	     89.95437384	      0.00000000	      0.00000000	     -1.62748573	      9.62280981	      0.80865363	     18.66795032	     89.95437384	      0.00000000	      0.00000000
      0.02000000	     15.70396163	      2.42315343	      6.38375910	     -1.31138076	      0.95752425	     -1.44233899	    -19.65138978	      3.08102874	    -21.00363019	    -11.29402831	     -0.19711798	     10.37506950	      3.14647298	     -1.70881913	     -0.18959458	     -0.21557868	      1.31525206	    -36.53596105	     -0.63767282	     12.79631733	     16.93757302	     10.34412433	    -23.57981140	     -1.48118357	      0.81770652	      0.12397653	    -10.77401193	      2.29960599	     26.63282295	     89.95437384	      0.00000000	      0.00000000	     -1.97229247	      9.67434094	      0.80783049	     18.59893380	     89.95437384	      0.00000000	      0.00000000
      0.03000000	     15.72518188	      2.72853165	      6.16708723	     -1.30557693	      0.95704010	     -1.44229055	    -20.01686423	      2.75294127	    -20.59993520	    -11.47242633	     -0.20023161	     10.77638201	      2.56677353	     -1.77917208	      0.06862981	     -0.77373958	      1.39747102	    -34.42376680	     -0.60080807	     12.35078632	     16.26749661	     10.09018093	    -23.65610295	     -1.87254631	      0.85891780	      0.17178114	    -10.87356879	      2.53170022	     27.07873639	     89.95437384	      0.00000000	      0.00000000	     -2.34712493	      9.77979822	      0.48517724	     18.58640268	     89.95437384	      0.00000000	      0.00000000
      0.04000000	     15.74031441	      2.89635065	      6.21339973	     -1.29907035	      0.95636646	     -1.44223738	    -20.52519773	      2.71055447	    -20.48195765	    -11.41068875	     -0.19915409	     11.04888909	      2.28901359	     -1.83151057	      0.40352093	     -1.00529231	      1.76988220	    -32.50716199	     -0.56735701	     12.02724969	     15.11664484	      9.65905072	    -23.61858569	     -2.06332793	      0.77833785	      0.05315600	    -10.86831818	      2.49038839	     27.60741279	     89.95437384	      0.00000000	      0.00000000	     -2.73156007	      9.88270024	      0.39638467	     18.53473004	     89.95437384	      0.00000000	      0.00000000
      0.05000000	     15.89644289	      3.13818166	      5.97979591	     -1.29274711	      0.95588622	     -1.44221407	    -21.12565673	      2.45899126	    -20.20249286	    -11.44381879	     -0.19973232	     11.27937391	      2.05166829	     -1.88575152	      0.50838564	     -1.36712756	      2.27878376	    -30.52653449	     -0.53278854	     11.48746493	     13.97825984	      9.05127552	    -23.76737939	     -2.37356483	      0.89132960	     -0.03163136	    -10.95755935	      2.50340455	     28.17299562	     89.95437384	      0.00000000	      0.00000000	     -3.07374914	      9.92598732	      0.19434235	     18.44446276	     89.95437384	      0.00000000	      0.00000000
      0.06000000	     15.56079515	      3.03331828	      6.12338342	     -1.28689106	      0.95448007	     -1.44216775	    -21.01872139	      2.64415064	    -20.03391092	    -11.70936152	     -0.20436691	     11.64767315	      1.82211775	     -1.92196128	      1.39379678	     -1.35551283	      2.64455574	    -28.84389321	     -0.50342091	     10.95208138	     12.81328445	      8.68372556	    -23.41611311	     -2.30583064	      0.82497811	     -0.11861522	    -10.98757887	      2.55106827	     28.68419944	     89.95437384	      0.00000000	      0.00000000	     -3.38879763	      9.98745676	      0.08824575	     18.39898434	     89.95437384	      0.00000000	      0.00000000
      0.07000000	     16.14919306	      3.43362251	      5.65835926	     -1.27994085	      0.95451705	     -1.44191306	    -22.26820595	      2.24402730	    -19.53091306	    -11.48379240	     -0.20042999	     11.77524266	      1.63913287	     -1.95386334	      0.78139970	     -1.66795276	      4.28643600	    -26.56752544	     -0.46369079	     10.04258952	     10.60150375	      7.53440998	    -23.97830001	     -2.81216381	      1.06955443	     -0.26751994	    -11.05919521	      2.50283999	     29.35040332	     89.95437384	      0.00000000	      0.00000000	     -3.75003996	     10.04452614	     -0.12448256	     18.36395920	     89.95437384	      0.00000000	      0.00000000
